# AST/ASF file generated using VICON BodyLanguage
# -----------------------------------------------
:version 1.10
:name VICON
:units
  mass 1.0
  length 0.45
  angle deg
:documentation
   .ast/.asf automatically generated from VICON data using
   VICON BodyBuilder and BodyLanguage model FoxedUp or BRILLIANT.MOD
:root
   order TX TY TZ RX RY RZ
   axis XYZ
   position 0 0 0  
   orientation 0 0 0 
:bonedata
  begin
     id 1 
     name lhipjoint
     direction 0.78388 -0.462562 0.414208 
     length 3.01181 
     axis 0 0 0  XYZ
  end
  begin
     id 2 
     name lfemur
     direction 0.34202 -0.939693 0  
     length 6.04673  
     axis 0 0 20  XYZ
    dof rx ry rz
    limits (-160.0 20.0)
           (-70.0 70.0)
           (-60.0 70.0)
  end
  begin
     id 3 
     name ltibia
     direction 0.34202 -0.939693 0   
     length 7.211   
     axis 0 0 20   XYZ
    dof rx
    limits (-10.0 170.0)
  end
  begin
     id 4 
     name lfoot
     direction 0.121887 -0.334882 0.934344   
     length 2.13567   
     axis -90 7.62852e-016 20   XYZ
    dof rx rz
    limits (-45.0 90.0)
           (-70.0 20.0)
  end
  begin
     id 5 
     name ltoes
     direction 1.53555e-011 -4.2179e-011 1   
     length 1.05957   
     axis -90 7.62852e-016 20   XYZ
    dof rx
    limits (-90.0 20.0)
  end
  begin
     id 6 
     name rhipjoint
     direction -0.769387 -0.475875 0.426129   
     length 2.92756  
     axis 0 0 0  XYZ 
  end
  begin
     id 7 
     name rfemur
     direction -0.34202 -0.939693 0   
     length 6.35468   
     axis 0 0 -20   XYZ
    dof rx ry rz
    limits (-160.0 20.0)
           (-70.0 70.0)
           (-70.0 60.0)
  end
  begin
     id 8 
     name rtibia
     direction -0.34202 -0.939693 0   
     length 7.37886   
     axis 0 0 -20   XYZ
    dof rx
    limits (-10.0 170.0)
 end
 begin
     id 9 
     name rfoot
     direction -0.101763 -0.279592 0.954711   
     length 2.21478  
     axis -90 -7.62852e-016 -20   XYZ
    dof rx rz
    limits (-45.0 90.0)
           (-20.0 70.0)
  end
  begin
     id 10 
     name rtoes
     direction -1.53494e-011 -4.21851e-011 1   
     length 1.10506   
     axis -90 -7.62852e-016 -20   XYZ
    dof rx
    limits (-90.0 20.0)
  end
  begin
     id 11 
     name lowerback
     direction 0.00747405 0.999267 0.0375481   
     length 2.13259   
     axis 0 0 0   XYZ
    dof rx ry rz
    limits (-20.0 45.0)
           (-30.0 30.0)
           (-30.0 30.0)
  end
  begin
     id 12 
     name upperback
     direction 0.00661626 0.996177 0.0871029   
     length 2.10528   
     axis 0 0 0   XYZ
    dof rx ry rz
    limits (-20.0 45.0)
           (-30.0 30.0)
           (-30.0 30.0)
  end
  begin
     id 13 
     name thorax
     direction 0.00320659 0.997679 0.0680167   
     length 2.11338   
     axis 0 0 0   XYZ
    dof rx ry rz
    limits (-20.0 45.0)
           (-30.0 30.0)
           (-30.0 30.0)
  end
  begin
     id 14 
     name lowerneck
     direction 0.0374841 0.973033 0.227602   
     length 1.42765   
     axis 0 0 0   XYZ
    dof rx ry rz
    limits (-20.0 45.0)
           (-30.0 30.0)
           (-30.0 30.0)
  end
  begin
     id 15 
     name upperneck
     direction 0.00481585 0.989155 -0.146795   
     length 1.47593   
     axis 0 0 0   XYZ
    dof rx ry rz
    limits (-20.0 45.0)
           (-30.0 30.0)
           (-30.0 30.0)
  end
  begin
     id 16
     name head
     direction -0.00292522 0.997206 -0.0746423  
     length 1.48116  
     axis 0 0 0   XYZ
    dof rx ry rz
    limits (-20.0 45.0)
           (-30.0 30.0)
           (-30.0 30.0)
  end
  begin
     id 17 
     name lclavicle
     direction 0.951444 0.305606 0.0368784  
     length 3.01855  
     axis 0 0 0   XYZ
    dof ry rz
    limits (-20.0 10.0)
           (0.0 20.0)
  end
  begin
     id 18 
     name lhumerus
     direction 1 -4.48977e-011 2.61664e-027   
     length 5.52731   
     axis 180 -30 -90   XYZ
    dof rx ry rz
    limits (-60.0 90.0)
           (-90.0 90.0)
           (-90.0 90.0)
  end
  begin
     id 19
     name lradius
     direction 1 -4.48944e-011 8.22157e-027   
     length 3.11059   
     axis 180 -30 -90   XYZ
    dof rx
    limits (-10.0 170.0)
  end
  begin
     id 20
     name lwrist
     direction 1 -4.48976e-011 1.5779e-026   
     length 1.5553   
     axis -1.15221e-014 90 90   XYZ
    dof ry
    limits (-180.0 0.0)
 end
  begin
     id 21 
     name lhand
     direction 1 -4.49025e-011 3.1558e-026   
     length 0.419626   
     axis -2.01367e-014 90 90   XYZ
    dof rx rz
    limits (-90.0 90.0)
           (-45.0 45.0)
  end
  begin
     id 22 
     name lfingers
     direction 1 -4.4904e-011 6.31161e-026   
     length 0.338313   
     axis -4.02734e-014 90 90   XYZ
    dof rx
    limits (0.0 90.0)
  end
  begin
     id 23
     name lthumb
     direction 0.707107 -6.35004e-011 0.707107   
     length 0.485752   
     axis -90 45 2.85299e-015   XYZ
    dof rx rz
    limits (-45.0 45.0)
           (-45.0 45.0)
  end
  begin
     id 24 
     name rclavicle
     direction -0.968876 0.223791 0.105816   
     length 3.04177  
     axis 0 0 0   XYZ 
    dof ry rz
    limits (-10.0 20.0)
           (-20.0 0.0)
  end
  begin
     id 25 
     name rhumerus
     direction -1 -4.48962e-011 -1.01384e-027  
     length 5.25396   
     axis 180 30 90   XYZ
    dof rx ry rz
    limits (-90.0 60.0)
           (-90.0 90.0)
           (-90.0 90.0)
  end
  begin
     id 26 
     name rradius
     direction -1 -4.48955e-011 8.88542e-027   
     length 3.10567   
     axis 180 30 90   XYZ
    dof rx
    limits (-10.0 170.0)
  end
  begin
     id 27 
     name rwrist
     direction -1 -4.48994e-011 1.5779e-026   
     length 1.55283   
     axis -1.15221e-014 -90 -90   XYZ
    dof ry
    limits (-180.0 0.0)
  end
  begin
     id 28
     name rhand
     direction -1 -4.48891e-011 3.1558e-026   
     length 0.498676   
     axis -2.01367e-014 -90 -90   XYZ
    dof rx rz
    limits (-90.0 90.0)
           (-45.0 45.0)
  end
  begin
     id 29
     name rfingers
     direction -1 -4.48972e-011 6.31161e-026   
     length 0.402045   
     axis -4.02734e-014 -90 -90   XYZ
    dof rx
    limits (0.0 90.0)
  end
  begin
     id 30
     name rthumb
     direction -0.707107 -6.34849e-011 0.707107   
     length 0.577259   
     axis -90 -45 -2.85299e-015   XYZ
    dof rx rz
    limits (-45.0 45.0)
           (-45.0 45.0)
  end
:hierarchy
  begin
    root lhipjoint rhipjoint lowerback
    lhipjoint lfemur
    lfemur ltibia
    ltibia lfoot
    lfoot ltoes
    rhipjoint rfemur
    rfemur rtibia
    rtibia rfoot
    rfoot rtoes
    lowerback upperback
    upperback thorax
    thorax lowerneck lclavicle rclavicle
    lowerneck upperneck
    upperneck head
    lclavicle lhumerus
    lhumerus lradius
    lradius lwrist
    lwrist lhand lthumb
    lhand lfingers
    rclavicle rhumerus
    rhumerus rradius
    rradius rwrist
    rwrist rhand rthumb
    rhand rfingers
  end

#!OML:ASF H:\Pregnant\Project 1\Capture day 1\Session 1\femalepreg.ASF
:FULLY-SPECIFIED
:DEGREES
189
root -8.86106 15.7003 7.33297 -162.181 -4.70487 180.747
lowerback -10.3048 1.53681 10.9181
upperback -3.81133 0.09048 4.2372
thorax 1.83088 -0.316054 -1.68237
lowerneck -20.4918 1.98262 7.12564
upperneck 29.5337 1.67478 -8.12365
head 13.5478 -0.082649 -4.29323
rclavicle 3.97569e-016 7.95139e-014
rhumerus -25.1719 -2.17943 -75.7984
rradius 22.5028
rwrist 5.05063
rhand -18.6881 -19.3056
rfingers 7.12502
rthumb 7.60619 -49.1488
lclavicle 3.97569e-016 7.95139e-014
lhumerus -46.6234 -8.91336 80.7487
lradius 30.0354
lwrist 36.4877
lhand -31.3398 -8.82403
lfingers 7.12502
lthumb -4.61128 21.1058
rfemur -39.9725 14.1061 19.8633
rtibia 43.604
rfoot -18.2223 -9.80215
rtoes -14.59
lfemur -43.5637 -3.29065 -21.7693
ltibia 71.1831
lfoot -2.08221 -5.1086
ltoes -22.8527
190
root -8.87759 15.7191 7.17116 -162.09 -4.15439 180.642
lowerback -10.2063 1.6372 10.9294
upperback -3.80976 0.233561 4.23036
thorax 1.79397 -0.248555 -1.67909
lowerneck -20.5353 1.91451 7.03119
upperneck 29.6069 1.57614 -8.06196
head 13.5766 -0.132426 -4.27385
rclavicle 3.97569e-015 -6.20208e-014
rhumerus -24.2016 -0.861869 -77.0167
rradius 23.5664
rwrist 3.86803
rhand -19.0049 -19.0672
rfingers 7.12502
rthumb 7.30046 -48.9213
lclavicle 3.97569e-015 -6.20208e-014
lhumerus -47.3876 -7.97451 79.5597
lradius 28.1918
lwrist 36.8477
lhand -30.7247 -8.33449
lfingers 7.12502
lthumb -4.01732 21.6074
rfemur -39.2576 14.4059 19.7716
rtibia 43.2736
rfoot -18.5382 -9.75619
rtoes -14.8943
lfemur -44.7921 -3.0109 -22.0602
ltibia 70.9186
lfoot -2.66698 -4.52903
ltoes -22.9758
191
root -8.89383 15.737 7.00954 -161.997 -3.62286 180.53
lowerback -10.1022 1.73235 10.9083
upperback -3.80872 0.376708 4.21217
thorax 1.75326 -0.17997 -1.6703
lowerneck -20.6036 1.83269 6.91268
upperneck 29.6797 1.46567 -7.99966
head 13.6093 -0.189862 -4.25233
rclavicle -5.96354e-016 -9.06458e-014
rhumerus -23.2958 0.443267 -78.1765
rradius 24.6992
rwrist 2.59145
rhand -19.294 -18.8238
rfingers 7.12502
rthumb 7.02134 -48.6873
lclavicle -5.96354e-016 -9.06458e-014
lhumerus -48.0888 -6.9873 78.2314
lradius 26.3492
lwrist 37.0635
lhand -29.8622 -7.4898
lfingers 7.12502
lthumb -3.18435 22.4662
rfemur -38.5482 14.6925 19.6725
rtibia 42.9481
rfoot -18.8347 -9.70589
rtoes -15.1677
lfemur -45.9555 -2.80511 -22.3198
ltibia 70.4557
lfoot -3.24531 -3.92827
ltoes -23.1343
192
root -8.91001 15.7541 6.84773 -161.909 -3.11038 180.415
lowerback -9.99379 1.8218 10.8606
upperback -3.80126 0.517919 4.18593
thorax 1.71648 -0.110637 -1.65591
lowerneck -20.6936 1.74478 6.77364
upperneck 29.7396 1.35544 -7.93736
head 13.6413 -0.248696 -4.22665
rclavicle 8.34896e-015 3.33958e-014
rhumerus -22.4471 1.72649 -79.2726
rradius 25.9047
rwrist 1.25814
rhand -19.5456 -18.5689
rfingers 7.12502
rthumb 6.77847 -48.4404
lclavicle 8.34896e-015 3.33958e-014
lhumerus -48.7313 -5.91488 76.734
lradius 24.5495
lwrist 37.0478
lhand -28.8211 -6.21025
lfingers 7.12502
lthumb -2.17896 23.7584
rfemur -37.8355 14.9919 19.5662
rtibia 42.6281
rfoot -19.1085 -9.67923
rtoes -15.4354
lfemur -47.0467 -2.66298 -22.5421
ltibia 69.8067
lfoot -3.8076 -3.3205
ltoes -23.3279
193
root -8.92564 15.77 6.68562 -161.822 -2.62113 180.307
lowerback -9.88544 1.90533 10.7923
upperback -3.7913 0.65519 4.15221
thorax 1.6816 -0.0420894 -1.63877
lowerneck -20.8 1.65298 6.63438
upperneck 29.7921 1.24613 -7.89251
head 13.6742 -0.309167 -4.20773
rclavicle -7.55382e-015 6.04305e-014
rhumerus -21.6505 2.97576 -80.3074
rradius 27.1743
rwrist -0.10062
rhand -19.7058 -18.366
rfingers 7.12502
rthumb 6.62385 -48.2424
lclavicle -7.55382e-015 6.04305e-014
lhumerus -49.3447 -4.7426 75.0369
lradius 22.8358
lwrist 36.7338
lhand -27.6496 -4.59883
lfingers 7.12502
lthumb -1.04746 25.3783
rfemur -37.1232 15.2945 19.4691
rtibia 42.3127
rfoot -19.3633 -9.67042
rtoes -15.7018
lfemur -48.0734 -2.57271 -22.7112
ltibia 68.9842
lfoot -4.33311 -2.72344
ltoes -23.533
194
root -8.94091 15.7842 6.52343 -161.737 -2.1622 180.211
lowerback -9.77581 1.98055 10.7121
upperback -3.77995 0.784092 4.11392
thorax 1.64628 0.0230741 -1.62121
lowerneck -20.9157 1.56211 6.49044
upperneck 29.8293 1.1441 -7.85352
head 13.7035 -0.366935 -4.18833
rclavicle -2.78299e-015 2.54444e-014
rhumerus -20.9107 4.20438 -81.286
rradius 28.5146
rwrist -1.46666
rhand -19.8025 -18.1825
rfingers 7.12502
rthumb 6.53046 -48.0618
lclavicle -2.78299e-015 2.54444e-014
lhumerus -49.9484 -3.4672 73.1338
lradius 21.2409
lwrist 36.0651
lhand -26.4436 -2.77346
lfingers 7.12502
lthumb 0.117293 27.2062
rfemur -36.408 15.6117 19.3849
rtibia 41.9966
rfoot -19.594 -9.70346
rtoes -15.977
lfemur -49.0422 -2.53072 -22.818
ltibia 68.002
lfoot -4.8004 -2.15173
ltoes -23.6816
195
root -8.9563 15.7967 6.35952 -161.701 -1.77256 180.111
lowerback -9.64708 2.02756 10.6286
upperback -3.75109 0.882018 4.06681
thorax 1.6152 0.0757336 -1.61509
lowerneck -21.0312 1.47144 6.34551
upperneck 29.8347 1.05014 -7.82497
head 13.7201 -0.421295 -4.16964
rclavicle 3.77691e-015 7.79236e-014
rhumerus -20.2287 5.42339 -82.2161
rradius 29.9253
rwrist -2.85243
rhand -19.855 -18.0245
rfingers 7.12502
rthumb 6.47978 -47.9054
lclavicle 3.77691e-015 7.79236e-014
lhumerus -50.5789 -2.1497 71.0739
lradius 19.8248
lwrist 35.091
lhand -25.3565 -0.828687
lfingers 7.12502
lthumb 1.1673 29.1479
rfemur -35.6155 15.9223 19.3236
rtibia 41.6768
rfoot -19.8121 -9.79924
rtoes -16.276
lfemur -49.8851 -2.57358 -22.8682
ltibia 66.8573
lfoot -5.20848 -1.60939
ltoes -23.7989
196
root -8.9718 15.8075 6.195 -161.666 -1.39165 180.036
lowerback -9.51672 2.0774 10.5524
upperback -3.7191 0.98411 4.01126
thorax 1.58696 0.131098 -1.62159
lowerneck -21.1524 1.38689 6.20735
upperneck 29.8147 0.968733 -7.80268
head 13.7285 -0.468779 -4.15095
rclavicle -1.55052e-014 -8.90555e-014
rhumerus -19.6063 6.62742 -83.0949
rradius 31.4072
rwrist -4.22989
rhand -19.8363 -17.9231
rfingers 7.12502
rthumb 6.4978 -47.8035
lclavicle -1.55052e-014 -8.90555e-014
lhumerus -51.2545 -0.8491 68.9044
lradius 18.5936
lwrist 33.7865
lhand -24.4694 0.979273
lfingers 7.12502
lthumb 2.024 30.9494
rfemur -34.8175 16.2489 19.2848
rtibia 41.3491
rfoot -20.0066 -9.91447
rtoes -16.5906
lfemur -50.6645 -2.63918 -22.847
ltibia 65.5657
lfoot -5.54738 -1.10388
ltoes -23.8375
197
root -8.98696 15.8169 6.02999 -161.645 -1.05236 179.959
lowerback -9.37911 2.11284 10.4644
upperback -3.68298 1.0721 3.9427
thorax 1.55736 0.180945 -1.63714
lowerneck -21.2726 1.31582 6.07998
upperneck 29.7657 0.910757 -7.79005
head 13.7268 -0.50459 -4.13219
rclavicle 1.43125e-014 4.77083e-014
rhumerus -19.0478 7.81993 -83.9294
rradius 32.9569
rwrist -5.57501
rhand -19.7807 -17.8691
rfingers 7.12502
rthumb 6.55148 -47.7478
lclavicle 1.43125e-014 4.77083e-014
lhumerus -52.0003 0.322596 66.7473
lradius 17.6154
lwrist 32.3591
lhand -23.9493 2.63372
lfingers 7.12502
lthumb 2.52629 32.5985
rfemur -33.9917 16.5701 19.2574
rtibia 41.0122
rfoot -20.1823 -10.0598
rtoes -16.9191
lfemur -51.3629 -2.75598 -22.7698
ltibia 64.1238
lfoot -5.81461 -0.645351
ltoes -23.8073
198
root -9.00203 15.8254 5.86471 -161.61 -0.722 179.887
lowerback -9.24839 2.14786 10.3664
upperback -3.65199 1.16136 3.85848
thorax 1.52623 0.231806 -1.6635
lowerneck -21.389 1.2524 5.96052
upperneck 29.6944 0.866295 -7.78362
head 13.7161 -0.533321 -4.11351
rclavicle 4.96962e-015 -8.5875e-014
rhumerus -18.5539 9.01397 -84.7233
rradius 34.5637
rwrist -6.87926
rhand -19.6988 -17.8367
rfingers 7.12502
rthumb 6.63058 -47.7129
lclavicle 4.96962e-015 -8.5875e-014
lhumerus -52.8191 1.31632 64.6609
lradius 16.8887
lwrist 30.9031
lhand -23.7654 3.96981
lfingers 7.12502
lthumb 2.7039 33.9324
rfemur -33.1733 16.8856 19.2339
rtibia 40.6623
rfoot -20.3402 -10.1957
rtoes -17.2541
lfemur -52.006 -2.89605 -22.6377
ltibia 62.5376
lfoot -6.01278 -0.233223
ltoes -23.7492
199
root -9.01678 15.8335 5.69929 -161.54 -0.382954 179.82
lowerback -9.14474 2.19033 10.2502
upperback -3.62975 1.25989 3.75492
thorax 1.50177 0.287637 -1.69877
lowerneck -21.5038 1.19391 5.85558
upperneck 29.606 0.829952 -7.78942
head 13.6988 -0.557699 -4.09987
rclavicle 4.57205e-015 -1.08139e-013
rhumerus -18.1133 10.2038 -85.478
rradius 36.2109
rwrist -8.11841
rhand -19.6029 -17.8253
rfingers 7.12502
rthumb 6.72321 -47.6986
lclavicle 4.57205e-015 -1.08139e-013
lhumerus -53.6903 2.10784 62.6866
lradius 16.4077
lwrist 29.532
lhand -23.8722 4.94272
lfingers 7.12502
lthumb 2.60076 34.9066
rfemur -32.3922 17.1958 19.2013
rtibia 40.2983
rfoot -20.4828 -10.3084
rtoes -17.6119
lfemur -52.6131 -3.04417 -22.4547
ltibia 60.8093
lfoot -6.15375 0.128573
ltoes -23.6679
200
root -9.03109 15.8418 5.53328 -161.436 -0.00887199 179.754
lowerback -9.06602 2.24856 10.1067
upperback -3.61629 1.38039 3.62655
thorax 1.48407 0.354947 -1.74223
lowerneck -21.614 1.13667 5.75813
upperneck 29.507 0.791775 -7.78692
head 13.6758 -0.580056 -4.08369
rclavicle -3.97569e-015 1.59028e-015
rhumerus -17.7267 11.387 -86.1956
rradius 37.8893
rwrist -9.27408
rhand -19.4423 -17.8327
rfingers 7.12502
rthumb 6.87823 -47.701
lclavicle -3.97569e-015 1.59028e-015
lhumerus -54.593 2.66401 60.8757
lradius 16.156
lwrist 28.3571
lhand -24.1802 5.51814
lfingers 7.12502
lthumb 2.30335 35.4855
rfemur -31.6476 17.5191 19.1488
rtibia 39.9168
rfoot -20.6118 -10.3903
rtoes -17.9838
lfemur -53.1713 -3.17826 -22.2292
ltibia 58.9434
lfoot -6.25532 0.436923
ltoes -23.5924
201
root -9.04487 15.8505 5.36646 -161.285 0.41543 179.687
lowerback -9.02546 1.49602 10.0515
upperback -3.56143 1.70918 3.51939
thorax 1.45997 1.08252 -1.78093
lowerneck -21.7099 1.07682 5.66657
upperneck 29.3982 0.748594 -7.78561
head 13.6453 -0.603807 -4.06911
rclavicle 7.95139e-016 6.04305e-014
rhumerus -17.3861 12.5907 -86.8745
rradius 39.5874
rwrist -10.339
rhand -19.2336 -17.867
rfingers 7.12502
rthumb 7.07967 -47.7285
lclavicle 7.95139e-016 6.04305e-014
lhumerus -55.5017 3.04558 59.2002
lradius 16.0713
lwrist 27.3915
lhand -24.572 5.66722
lfingers 7.12502
lthumb 1.92493 35.6383
rfemur -30.9586 17.8532 19.0625
rtibia 39.5176
rfoot -20.7272 -10.4249
rtoes -18.3803
lfemur -53.6878 -3.29206 -21.9649
ltibia 56.9446
lfoot -6.33281 0.683789
ltoes -23.5369
202
root -9.05792 15.8595 5.19912 -161.073 0.906794 179.625
lowerback -9.04314 1.61921 9.81265
upperback -3.57623 1.87335 3.353
thorax 1.47407 1.1556 -1.805
lowerneck -21.7899 1.01333 5.56458
upperneck 29.2787 0.699105 -7.76585
head 13.6063 -0.628394 -4.04538
rclavicle -1.70955e-014 -7.95139e-015
rhumerus -17.0798 13.8135 -87.5052
rradius 41.2917
rwrist -11.2951
rhand -18.9818 -17.8721
rfingers 7.12502
rthumb 7.32271 -47.7253
lclavicle -1.70955e-014 -7.95139e-015
lhumerus -56.3882 3.27902 57.6682
lradius 16.1134
lwrist 26.6892
lhand -24.9553 5.45857
lfingers 7.12502
lthumb 1.55479 35.4327
rfemur -30.3475 18.2026 18.9383
rtibia 39.1003
rfoot -20.828 -10.3994
rtoes -18.7955
lfemur -54.181 -3.3729 -21.6512
ltibia 54.8281
lfoot -6.40642 0.867058
ltoes -23.4837
